<svg width="10" height="10" viewBox="0 0 10 10" fill="none" xmlns="http://www.w3.org/2000/svg">
<path d="M0.96875 8.375C0.96875 8.62364 1.06752 8.8621 1.24334 9.03791C1.41915 9.21373 1.65761 9.3125 1.90625 9.3125C2.15489 9.3125 2.39335 9.21373 2.56916 9.03791C2.74498 8.8621 2.84375 8.62364 2.84375 8.375C2.84375 8.12636 2.74498 7.8879 2.56916 7.71209C2.39335 7.53627 2.15489 7.4375 1.90625 7.4375C1.65761 7.4375 1.41915 7.53627 1.24334 7.71209C1.06752 7.8879 0.96875 8.12636 0.96875 8.375ZM0.96875 5C0.96875 5.24864 1.06752 5.4871 1.24334 5.66291C1.41915 5.83873 1.65761 5.9375 1.90625 5.9375C2.15489 5.9375 2.39335 5.83873 2.56916 5.66291C2.74498 5.4871 2.84375 5.24864 2.84375 5C2.84375 4.75136 2.74498 4.5129 2.56916 4.33709C2.39335 4.16127 2.15489 4.0625 1.90625 4.0625C1.65761 4.0625 1.41915 4.16127 1.24334 4.33709C1.06752 4.5129 0.96875 4.75136 0.96875 5ZM0.96875 1.625C0.96875 1.87364 1.06752 2.1121 1.24334 2.28791C1.41915 2.46373 1.65761 2.5625 1.90625 2.5625C2.15489 2.5625 2.39335 2.46373 2.56916 2.28791C2.74498 2.1121 2.84375 1.87364 2.84375 1.625C2.84375 1.37636 2.74498 1.1379 2.56916 0.962087C2.39335 0.786272 2.15489 0.6875 1.90625 0.6875C1.65761 0.6875 1.41915 0.786272 1.24334 0.962087C1.06752 1.1379 0.96875 1.37636 0.96875 1.625ZM4.53125 9.125H8.84375C8.94688 9.125 9.03125 9.04063 9.03125 8.9375V7.8125C9.03125 7.70937 8.94688 7.625 8.84375 7.625H4.53125C4.42812 7.625 4.34375 7.70937 4.34375 7.8125V8.9375C4.34375 9.04063 4.42812 9.125 4.53125 9.125ZM4.53125 5.75H8.84375C8.94688 5.75 9.03125 5.66563 9.03125 5.5625V4.4375C9.03125 4.33437 8.94688 4.25 8.84375 4.25H4.53125C4.42812 4.25 4.34375 4.33437 4.34375 4.4375V5.5625C4.34375 5.66563 4.42812 5.75 4.53125 5.75ZM4.53125 2.375H8.84375C8.94688 2.375 9.03125 2.29063 9.03125 2.1875V1.0625C9.03125 0.959375 8.94688 0.875 8.84375 0.875H4.53125C4.42812 0.875 4.34375 0.959375 4.34375 1.0625V2.1875C4.34375 2.29063 4.42812 2.375 4.53125 2.375Z" fill="#1890FF"/>
</svg>
